# xmcd
#
# Track frame offsets: 
#        180
#        13758
#        32408
#        46355
#        62731
#        79199
#        94484
#        121392
#        142641
#        160316
#        183261
#        201691
#        223964
#
# Disc length: 3250 seconds
#
# Revision: 0
# Processed by: cddbd v1.5.2PL0 Copyright (c) Steve Scherf et al.
# Submitted via: ExactAudioCopy v0.99pb5
#
DISCID=ba0cb00d
DTITLE=Zoran Jelenkovic - Kraljica duse
DYEAR=1997
DGENRE=Pop
TTITLE0=Sv. Donat i Kalelarga
TTITLE1=Djevojka iz snova
TTITLE2=Vitrovi me nose
TTITLE3=Za mene nema nade
TTITLE4=Zakazimo randevu
TTITLE5=Prijatelju
TTITLE6=Anja
TTITLE7=Crvene suze
TTITLE8=Svaki dan s tobom
TTITLE9=Labirint
TTITLE10=Pjescani sat
TTITLE11=Vrati se
TTITLE12=Zatvorski krug
EXTD=
EXTT0=
EXTT1=
EXTT2=
EXTT3=
EXTT4=
EXTT5=
EXTT6=
EXTT7=
EXTT8=
EXTT9=
EXTT10=
EXTT11=
EXTT12=
PLAYORDER=
